Coordinates
version=1
nRows=32
nColumns=12
inDegrees=yes

Units are S.I. units (second, meters, Newtons, ...)
Angles are in degrees

endheader
time	SC_y	SC_z	SC_x	AC_y	AC_z	AC_x	GH_y	GH_z	GH_yy	EL_x	PS_y
       0.0              -17.46          27.55          53.29          61.02           6.55          18.13          -49.8          -2.81        -0.1906          81.45          137.3
   0.01922              -17.46          27.55          53.29          61.02          6.549          18.13         -49.79         -2.803        -0.1985          81.45          137.3
   0.03844              -17.46          27.55          53.29          61.02          6.548          18.13         -49.79         -2.795         -0.207          81.45          137.3
   0.05767              -17.47          27.55           53.3          61.02          6.547          18.12         -49.78         -2.787        -0.2161          81.46          137.3
   0.07689              -17.47          27.55           53.3          61.02          6.546          18.12         -49.78         -2.779        -0.2257          81.46          137.3
   0.09611              -17.47          27.55           53.3          61.02          6.545          18.12         -49.77          -2.77        -0.2359          81.46          137.2
    0.1153              -17.48          27.56          53.31          61.02          6.543          18.11         -49.77          -2.76        -0.2469          81.47          137.2
    0.1346              -17.48          27.56          53.31          61.02          6.542          18.11         -49.76          -2.75        -0.2586          81.47          137.2
    0.1538              -17.49          27.56          53.32          61.02           6.54           18.1         -49.75         -2.738        -0.2711          81.47          137.2
     0.173              -17.49          27.56          53.32          61.02          6.539           18.1         -49.74         -2.727        -0.2845          81.48          137.2
    0.1922               -17.5          27.56          53.33          61.01          6.537          18.09         -49.74         -2.714         -0.299          81.48          137.1
    0.2114              -17.51          27.56          53.33          61.01          6.535          18.08         -49.73           -2.7        -0.3145          81.49          137.1
    0.2307              -17.51          27.56          53.34          61.01          6.533          18.08         -49.72         -2.685        -0.3312          81.49          137.1
    0.2499              -17.52          27.56          53.34          61.01          6.531          18.07         -49.71         -2.669        -0.3493           81.5          137.1
    0.2691              -17.53          27.56          53.35          61.01          6.528          18.06          -49.7         -2.652        -0.3689           81.5          137.0
    0.2883              -17.54          27.56          53.36          61.01          6.526          18.05         -49.68         -2.633        -0.3901          81.51          137.0
    0.3076              -17.54          27.56          53.37          61.01          6.523          18.04         -49.67         -2.612        -0.4132          81.51          137.0
    0.3268              -17.55          27.56          53.38          61.01           6.52          18.03         -49.66          -2.59        -0.4384          81.52          136.9
     0.346              -17.57          27.56          53.39          61.01          6.516          18.02         -49.64         -2.565        -0.4658          81.53          136.9
    0.3652              -17.58          27.57           53.4          61.01          6.513          18.01         -49.62         -2.539        -0.4959          81.54          136.9
    0.3844              -17.59          27.57          53.41           61.0          6.509           18.0          -49.6         -2.509        -0.5288          81.55          136.8
    0.4037              -17.61          27.57          53.42           61.0          6.504          17.98         -49.58         -2.477        -0.5652          81.56          136.7
    0.4229              -17.62          27.57          53.44           61.0          6.499          17.97         -49.56         -2.441        -0.6053          81.57          136.7
    0.4421              -17.64          27.57          53.45           61.0          6.494          17.95         -49.54         -2.402        -0.6497          81.58          136.6
    0.4613              -17.66          27.57          53.47           61.0          6.488          17.93         -49.51         -2.358        -0.6991           81.6          136.5
    0.4806              -17.68          27.58          53.49          60.99          6.481          17.91         -49.48         -2.309        -0.7543          81.61          136.5
    0.4998              -17.71          27.58          53.51          60.99          6.473          17.88         -49.44         -2.254         -0.816          81.63          136.4
     0.519              -17.73          27.58          53.54          60.99          6.465          17.86          -49.4         -2.192        -0.8855          81.65          136.3
    0.5382              -17.77          27.58          53.56          60.98          6.455          17.82         -49.36         -2.122         -0.964          81.67          136.2
    0.5574               -17.8          27.59           53.6          60.98          6.444          17.79         -49.31         -2.043         -1.053           81.7          136.0
    0.5767              -17.84          27.59          53.63          60.97          6.432          17.75         -49.25         -1.953         -1.155          81.73          135.9
    0.5959              -17.89           27.6          53.68          60.97          6.417           17.7         -49.18         -1.849         -1.272          81.76          135.7
